<svg width="154" height="32" viewBox="0 0 154 32" fill="none" xmlns="http://www.w3.org/2000/svg">
<g clip-path="url(#clip0_11_2)">
<path d="M0 8.42105C0 3.77023 3.77023 0 8.42105 0H23.5789C28.2298 0 32 3.77023 32 8.42105V23.5789C32 28.2298 28.2298 32 23.5789 32H8.42105C3.77023 32 0 28.2298 0 23.5789V8.42105Z" fill="#465FFF"/>
<g filter="url(#filter0_d_11_2)">
<path d="M8.42383 10.6842C8.42383 9.75405 9.17787 9 10.108 9C11.0382 9 11.7922 9.75405 11.7922 10.6842V25.8421C11.7922 26.7723 11.0382 27.5263 10.108 27.5263C9.17787 27.5263 8.42383 26.7723 8.42383 25.8421V10.6842Z" fill="white"/>
</g>
<g filter="url(#filter1_d_11_2)">
<path d="M14.7422 13.6842C14.7422 12.754 15.4962 12 16.4264 12C17.3566 12 18.1106 12.754 18.1106 13.6842V22.1052C18.1106 23.0354 17.3566 23.7894 16.4264 23.7894C15.4962 23.7894 14.7422 23.0354 14.7422 22.1052V13.6842Z" fill="white" fill-opacity="0.9"/>
</g>
<g filter="url(#filter2_d_11_2)">
<path d="M21.0547 11.6842C21.0547 10.7541 21.8087 10 22.7389 10C23.6691 10 24.4231 10.7541 24.4231 11.6842V24.3158C24.4231 25.246 23.6691 26 22.7389 26C21.8087 26 21.0547 25.246 21.0547 24.3158V11.6842Z" fill="white" fill-opacity="0.7"/>
</g>
<path d="M36 10.5234C36.4688 10.6172 36.8672 10.6875 37.1953 10.7344C37.5234 10.7812 37.7969 10.8203 38.0156 10.8516C38.2656 10.8828 38.4766 10.8984 38.6484 10.8984C38.8203 10.8984 39.0547 10.8906 39.3516 10.875C39.6172 10.8594 39.9531 10.8516 40.3594 10.8516C40.7656 10.8359 41.2812 10.8125 41.9062 10.7812C41.5469 11.0312 41.2578 11.2422 41.0391 11.4141C40.8203 11.5859 40.6562 11.7344 40.5469 11.8594C40.4062 12 40.3203 12.1172 40.2891 12.2109C40.2578 12.2734 40.2266 12.5078 40.1953 12.9141C40.1641 13.3047 40.1328 13.8047 40.1016 14.4141C40.0859 15.0078 40.0859 15.6797 40.1016 16.4297C40.1172 17.1641 40.1562 17.9141 40.2188 18.6797C40.2969 19.4453 40.4062 20.1875 40.5469 20.9062C40.6875 21.6094 40.875 22.2266 41.1094 22.7578C41.3594 23.2891 41.6562 23.7031 42 24C42.3594 24.2969 42.7891 24.4062 43.2891 24.3281C43.9453 24.2344 44.4766 23.9141 44.8828 23.3672C45.2891 22.8203 45.5938 22.1562 45.7969 21.375C46.0156 20.5938 46.1484 19.7578 46.1953 18.8672C46.2578 17.9609 46.2656 17.1172 46.2188 16.3359C46.1875 15.5391 46.125 14.8516 46.0312 14.2734C45.9375 13.6953 45.8516 13.3359 45.7734 13.1953C45.6797 13.0391 45.5547 12.8594 45.3984 12.6562C45.2734 12.4844 45.1094 12.2891 44.9062 12.0703C44.7031 11.8359 44.4688 11.5859 44.2031 11.3203C44.6875 11.3359 45.125 11.3516 45.5156 11.3672C45.9062 11.3672 46.2344 11.375 46.5 11.3906C46.8125 11.4062 47.0938 11.4219 47.3438 11.4375C47.5938 11.4531 47.9062 11.4766 48.2812 11.5078C48.5938 11.5391 48.9922 11.5703 49.4766 11.6016C49.9766 11.6328 50.5703 11.6797 51.2578 11.7422C50.9922 11.8047 50.7734 11.8906 50.6016 12C50.4453 12.1094 50.3203 12.2266 50.2266 12.3516C50.1172 12.4922 50.0391 12.6328 49.9922 12.7734C49.9453 12.8984 49.9062 13.2734 49.875 13.8984C49.8594 14.5078 49.8281 15.25 49.7812 16.125C49.75 16.9844 49.6953 17.9219 49.6172 18.9375C49.5391 19.9375 49.4141 20.8906 49.2422 21.7969C49.0859 22.7031 48.875 23.5078 48.6094 24.2109C48.3594 24.9141 48.0312 25.3984 47.625 25.6641C47.0312 26.0547 46.4062 26.3359 45.75 26.5078C45.0938 26.6641 44.4297 26.75 43.7578 26.7656C43.0859 26.7656 42.4219 26.7109 41.7656 26.6016C41.125 26.4766 40.5078 26.3281 39.9141 26.1562C39.3047 25.9688 38.7969 25.5469 38.3906 24.8906C38 24.2344 37.6875 23.4609 37.4531 22.5703C37.2344 21.6641 37.0703 20.6953 36.9609 19.6641C36.8672 18.6172 36.8047 17.6094 36.7734 16.6406C36.7578 15.6719 36.7578 14.7969 36.7734 14.0156C36.8047 13.2188 36.8281 12.6172 36.8438 12.2109C36.8438 12.0078 36.8125 11.8125 36.75 11.625C36.7031 11.4531 36.6172 11.2734 36.4922 11.0859C36.3828 10.8828 36.2188 10.6953 36 10.5234ZM50.7656 10.3828C51.4688 10.5078 52.0469 10.5938 52.5 10.6406C52.9531 10.6875 53.3203 10.7266 53.6016 10.7578C53.9297 10.7891 54.1875 10.7969 54.375 10.7812H55.0781C55.3281 10.7812 55.6406 10.7812 56.0156 10.7812C56.4062 10.7656 56.8906 10.7578 57.4688 10.7578C57.7969 11.5234 58.0938 12.2266 58.3594 12.8672C58.6406 13.5078 58.875 14.0547 59.0625 14.5078C59.2812 15.0547 59.4844 15.5469 59.6719 15.9844C59.8906 16.5312 60.125 17.1328 60.375 17.7891C60.625 18.4453 60.8516 19.0625 61.0547 19.6406C61.2734 20.2188 61.4531 20.6953 61.5938 21.0703C61.7344 21.4453 61.8047 21.6172 61.8047 21.5859C61.8047 21.5703 61.8125 21.4141 61.8281 21.1172C61.8438 20.8047 61.8594 20.4219 61.875 19.9688C61.8906 19.5 61.9062 18.9922 61.9219 18.4453C61.9531 17.8828 61.9688 17.3438 61.9688 16.8281C61.9844 16.2969 61.9922 15.8125 61.9922 15.375C61.9922 14.9375 61.9766 14.6094 61.9453 14.3906C61.8984 14.125 61.8047 13.8203 61.6641 13.4766C61.5391 13.1797 61.3672 12.8281 61.1484 12.4219C60.9297 12 60.625 11.5234 60.2344 10.9922C60.875 11.0078 61.3984 11.0156 61.8047 11.0156C62.2109 11.0156 62.5391 11.0156 62.7891 11.0156C63.0703 11.0156 63.2891 11.0078 63.4453 10.9922C63.6484 10.9922 63.8984 10.9766 64.1953 10.9453C64.4609 10.9141 64.7891 10.8906 65.1797 10.875C65.5859 10.8438 66.0859 10.8047 66.6797 10.7578C66.3359 11.0703 66.0625 11.3672 65.8594 11.6484C65.6562 11.9297 65.4922 12.1797 65.3672 12.3984C65.2266 12.6484 65.1328 12.8828 65.0859 13.1016C65.0234 13.3828 64.9688 13.8438 64.9219 14.4844C64.8906 15.1094 64.8516 15.8125 64.8047 16.5938C64.7734 17.375 64.7422 18.1875 64.7109 19.0312C64.6797 19.875 64.6484 20.6484 64.6172 21.3516C64.6172 21.8828 64.6016 22.4531 64.5703 23.0625C64.5391 23.5781 64.5078 24.1641 64.4766 24.8203C64.4453 25.4609 64.4062 26.1094 64.3594 26.7656L62.2734 26.8125C61.6641 25.7344 61.1484 24.8125 60.7266 24.0469C60.3203 23.2656 59.9844 22.625 59.7188 22.125C59.4219 21.5469 59.1719 21.0625 58.9688 20.6719C58.7969 20.2969 58.5703 19.8672 58.2891 19.3828C58.0547 18.9766 57.7578 18.4766 57.3984 17.8828C57.0547 17.2891 56.6406 16.6094 56.1562 15.8438C56.1094 16.9219 56.0859 17.8438 56.0859 18.6094C56.1016 19.3594 56.125 19.9844 56.1562 20.4844C56.2031 21.0625 56.2578 21.5469 56.3203 21.9375C56.3984 22.3125 56.5078 22.7344 56.6484 23.2031C56.7734 23.6094 56.9219 24.0859 57.0938 24.6328C57.2812 25.1797 57.5078 25.7969 57.7734 26.4844C56.8516 26.4375 56.1641 26.4141 55.7109 26.4141H55.0078C54.7891 26.4141 54.4922 26.4375 54.1172 26.4844C53.8047 26.5156 53.375 26.5625 52.8281 26.625C52.2969 26.6875 51.6328 26.7734 50.8359 26.8828C51.2109 26.4297 51.5078 26.0156 51.7266 25.6406C51.9609 25.25 52.1406 24.9219 52.2656 24.6562C52.4219 24.3438 52.5312 24.0703 52.5938 23.8359C52.6406 23.5859 52.6719 23.1562 52.6875 22.5469C52.7031 21.9219 52.7031 21.2188 52.6875 20.4375C52.6875 19.6406 52.6719 18.8047 52.6406 17.9297C52.625 17.0547 52.6016 16.2422 52.5703 15.4922C52.5391 14.7422 52.5 14.1016 52.4531 13.5703C52.4219 13.0391 52.3984 12.7109 52.3828 12.5859C52.3359 12.3828 52.2422 12.1641 52.1016 11.9297C51.9766 11.7266 51.8125 11.5 51.6094 11.25C51.4062 10.9844 51.125 10.6953 50.7656 10.3828ZM77.0156 13.6172C76.875 13.9609 76.75 14.2734 76.6406 14.5547C76.5469 14.8359 76.4609 15.0859 76.3828 15.3047C76.3047 15.5547 76.2344 15.7734 76.1719 15.9609C76.1094 16.1797 76.0391 16.4297 75.9609 16.7109C75.8828 16.9609 75.7812 17.2734 75.6562 17.6484C75.5469 18.0078 75.4141 18.4375 75.2578 18.9375C75.1328 18.1875 74.9062 17.5938 74.5781 17.1562C74.25 16.7031 73.9141 16.3516 73.5703 16.1016C73.1641 15.8203 72.7266 15.6172 72.2578 15.4922C71.4141 15.3516 70.8047 15.3672 70.4297 15.5391C70.0547 15.7109 69.8047 15.9297 69.6797 16.1953C69.6172 16.3047 69.5469 16.4453 69.4688 16.6172C69.4062 16.7734 69.3516 16.9375 69.3047 17.1094C69.2734 17.2812 69.2656 17.4531 69.2812 17.625C69.2969 17.7969 69.3672 17.9375 69.4922 18.0469C69.5703 18.125 69.7734 18.2344 70.1016 18.375C70.4297 18.5 70.8203 18.6484 71.2734 18.8203C71.7422 18.9766 72.2344 19.1484 72.75 19.3359C73.2812 19.5234 73.7812 19.7109 74.25 19.8984C74.7188 20.0859 75.125 20.2734 75.4688 20.4609C75.8125 20.6484 76.0391 20.8203 76.1484 20.9766C76.2422 21.1328 76.3438 21.3438 76.4531 21.6094C76.5781 21.8594 76.6641 22.1406 76.7109 22.4531C76.7734 22.75 76.7891 23.0625 76.7578 23.3906C76.7422 23.7031 76.6562 24.0156 76.5 24.3281C76.3438 24.6406 76.0938 24.9297 75.75 25.1953C75.4219 25.4609 74.9766 25.6797 74.4141 25.8516C73.7578 26.0547 73.125 26.1094 72.5156 26.0156C71.9062 25.9219 71.3438 25.7812 70.8281 25.5938C70.3281 25.4062 69.8906 25.2266 69.5156 25.0547C69.1406 24.8672 68.875 24.7891 68.7188 24.8203C68.5469 24.8516 68.3516 24.9375 68.1328 25.0781C67.9141 25.2188 67.7031 25.3672 67.5 25.5234C67.3125 25.6641 67.1484 25.7969 67.0078 25.9219C66.8672 26.0312 66.7969 26.0703 66.7969 26.0391C66.7969 26.0078 66.8203 25.9141 66.8672 25.7578C66.9297 25.6016 66.9922 25.4141 67.0547 25.1953C67.1328 24.9609 67.2031 24.7109 67.2656 24.4453C67.3438 24.1641 67.3984 23.8984 67.4297 23.6484C67.4609 23.4453 67.5 23.1953 67.5469 22.8984C67.5781 22.6328 67.6172 22.3125 67.6641 21.9375C67.7266 21.5469 67.7969 21.0781 67.875 20.5312C67.9531 20.9375 68.0625 21.2891 68.2031 21.5859C68.3594 21.8828 68.5078 22.1406 68.6484 22.3594C68.8203 22.6094 68.9844 22.8203 69.1406 22.9922C69.375 23.2109 69.6484 23.4141 69.9609 23.6016C70.2891 23.7891 70.6172 23.9531 70.9453 24.0938C71.2734 24.2188 71.5859 24.2969 71.8828 24.3281C72.1797 24.3594 72.4297 24.3281 72.6328 24.2344C72.8359 24.1406 73.0078 23.9688 73.1484 23.7188C73.3047 23.4688 73.4141 23.1953 73.4766 22.8984C73.5391 22.6016 73.5625 22.3203 73.5469 22.0547C73.5312 21.7734 73.4609 21.5469 73.3359 21.375C73.2422 21.2656 73.0234 21.125 72.6797 20.9531C72.3516 20.7812 71.9531 20.5938 71.4844 20.3906C71.0312 20.1875 70.5469 19.9766 70.0312 19.7578C69.5312 19.5391 69.0547 19.3203 68.6016 19.1016C68.1641 18.8672 67.7969 18.6484 67.5 18.4453C67.2188 18.2266 67.0625 18.0312 67.0312 17.8594C67 17.6094 66.9766 17.3359 66.9609 17.0391C66.9453 16.7266 66.9609 16.4219 67.0078 16.125C67.0703 15.8125 67.1797 15.5156 67.3359 15.2344C67.5078 14.9531 67.7578 14.7188 68.0859 14.5312C68.3047 14.4062 68.5938 14.3125 68.9531 14.25C69.3125 14.1875 69.7109 14.1562 70.1484 14.1562C70.5859 14.1406 71.0391 14.1562 71.5078 14.2031C71.9766 14.2344 72.4219 14.2812 72.8438 14.3438C73.2812 14.3906 73.6719 14.4531 74.0156 14.5312C74.375 14.6094 74.6484 14.6797 74.8359 14.7422C75.0547 14.8203 75.2891 14.8281 75.5391 14.7656C75.7578 14.7188 75.9922 14.6172 76.2422 14.4609C76.4922 14.3047 76.75 14.0234 77.0156 13.6172ZM81.3047 11.1328C82.0859 11.1797 82.7422 11.2188 83.2734 11.25C83.8203 11.2656 84.2734 11.2812 84.6328 11.2969C85.0391 11.3125 85.3828 11.3125 85.6641 11.2969C85.9453 11.2812 86.3281 11.2422 86.8125 11.1797C87.2188 11.1328 87.7578 11.0625 88.4297 10.9688C89.1172 10.8594 89.9688 10.7188 90.9844 10.5469C90.625 10.9062 90.3438 11.2344 90.1406 11.5312C89.9531 11.8125 89.8047 12.0547 89.6953 12.2578C89.5703 12.5078 89.4844 12.7188 89.4375 12.8906C89.4062 13.0469 89.4375 13.4375 89.5312 14.0625C89.625 14.6875 89.7578 15.4297 89.9297 16.2891C90.1016 17.1328 90.2891 18.0391 90.4922 19.0078C90.6953 19.9609 90.8984 20.8594 91.1016 21.7031C91.3047 22.5312 91.4844 23.2422 91.6406 23.8359C91.8125 24.4141 91.9375 24.7578 92.0156 24.8672C92.25 25.1953 92.3984 25.4141 92.4609 25.5234C92.5234 25.6172 92.6328 25.7031 92.7891 25.7812C92.8516 25.8125 92.9531 25.8594 93.0938 25.9219C93.2188 25.9844 93.3828 26.0625 93.5859 26.1562C93.8047 26.25 94.0781 26.3594 94.4062 26.4844C93.7969 26.5156 93.2734 26.5391 92.8359 26.5547C92.3984 26.5547 92.0391 26.5625 91.7578 26.5781C91.4297 26.5938 91.1484 26.6094 90.9141 26.625C90.6797 26.625 90.3984 26.6406 90.0703 26.6719C89.7891 26.7031 89.4219 26.7344 88.9688 26.7656C88.5312 26.7969 88.0156 26.8281 87.4219 26.8594C87.7344 26.6406 87.9844 26.4453 88.1719 26.2734C88.375 26.0859 88.5312 25.9297 88.6406 25.8047C88.7656 25.6484 88.8516 25.5078 88.8984 25.3828C88.9297 25.2422 88.9531 25.0312 88.9688 24.75C88.9844 24.5 88.9844 24.1719 88.9688 23.7656C88.9531 23.3438 88.9141 22.7969 88.8516 22.125L82.6875 22.7578C82.5312 23.0234 82.4141 23.2578 82.3359 23.4609C82.2578 23.6484 82.2031 23.8125 82.1719 23.9531C82.125 24.125 82.1094 24.2656 82.125 24.375C82.1562 24.5 82.2109 24.6484 82.2891 24.8203C82.3672 24.9766 82.4766 25.1641 82.6172 25.3828C82.7734 25.5859 83 25.8281 83.2969 26.1094C82.9062 26.0938 82.5078 26.0859 82.1016 26.0859C81.6953 26.0859 81.3203 26.0938 80.9766 26.1094C80.5703 26.125 80.1719 26.1406 79.7812 26.1562C79.3906 26.1719 78.9453 26.1953 78.4453 26.2266C78.0234 26.2578 77.5312 26.2969 76.9688 26.3438C76.3906 26.375 75.7734 26.4219 75.1172 26.4844C75.5234 26.2969 75.8672 26.1094 76.1484 25.9219C76.4297 25.7188 76.6641 25.5312 76.8516 25.3594C77.0703 25.1719 77.2578 24.9922 77.4141 24.8203C77.5234 24.6641 77.7422 24.3047 78.0703 23.7422C78.3984 23.1641 78.7656 22.4844 79.1719 21.7031C79.5938 20.9219 80.0312 20.0859 80.4844 19.1953C80.9531 18.3047 81.375 17.4688 81.75 16.6875C82.125 15.8906 82.4297 15.2031 82.6641 14.625C82.8984 14.0469 83.0156 13.6719 83.0156 13.5C82.9844 13.2969 82.9062 13.0703 82.7812 12.8203C82.6719 12.6016 82.5 12.3516 82.2656 12.0703C82.0469 11.7891 81.7266 11.4766 81.3047 11.1328ZM88.5703 20.3906C88.4766 19.8438 88.3906 19.375 88.3125 18.9844C88.2344 18.5781 88.1719 18.2422 88.125 17.9766C88.0625 17.6641 88.0156 17.3906 87.9844 17.1562C87.9375 16.9375 87.8828 16.6562 87.8203 16.3125C87.7578 16.0156 87.6797 15.6484 87.5859 15.2109C87.5078 14.7578 87.4062 14.2188 87.2812 13.5938C86.3906 15.375 85.6953 16.7578 85.1953 17.7422C84.7109 18.7109 84.3594 19.4219 84.1406 19.875C83.875 20.4062 83.7266 20.7188 83.6953 20.8125L88.5703 20.3906ZM93.6562 10.0078C94.1094 10.0859 94.5078 10.1406 94.8516 10.1719C95.2109 10.2031 95.5078 10.2266 95.7422 10.2422C96.0234 10.2578 96.2656 10.2656 96.4688 10.2656C96.6719 10.2656 96.9609 10.25 97.3359 10.2188C97.6484 10.1875 98.0547 10.1484 98.5547 10.1016C99.0703 10.0547 99.7031 9.97656 100.453 9.86719C100.234 9.92969 100.031 10.1094 99.8438 10.4062C99.6719 10.6875 99.5156 10.9922 99.375 11.3203C99.2031 11.7109 99.0547 12.1406 98.9297 12.6094C98.8203 13.0312 98.6797 13.6094 98.5078 14.3438C98.3516 15.0781 98.1953 15.875 98.0391 16.7344C97.8984 17.5938 97.7891 18.4688 97.7109 19.3594C97.6328 20.2344 97.6172 21.0391 97.6641 21.7734C97.7266 22.5078 97.875 23.1172 98.1094 23.6016C98.3438 24.0703 98.7031 24.3203 99.1875 24.3516C99.9219 24.4141 100.531 24.4219 101.016 24.375C101.516 24.3125 101.922 24.2266 102.234 24.1172C102.547 24.0078 102.789 23.8828 102.961 23.7422C103.133 23.5859 103.266 23.4375 103.359 23.2969C103.609 22.9375 103.867 22.4766 104.133 21.9141C104.398 21.3516 104.633 20.8125 104.836 20.2969C105.055 19.7812 105.234 19.3438 105.375 18.9844C105.516 18.625 105.586 18.4531 105.586 18.4688C105.586 18.5 105.578 18.6797 105.562 19.0078C105.562 19.3203 105.555 19.7031 105.539 20.1562C105.539 20.5938 105.531 21.0547 105.516 21.5391C105.516 22.0234 105.508 22.4375 105.492 22.7812C105.477 23.0625 105.461 23.375 105.445 23.7188C105.43 24.0156 105.414 24.3672 105.398 24.7734C105.398 25.1797 105.383 25.625 105.352 26.1094C104.695 26.0625 104.07 26.0312 103.477 26.0156C102.883 26 102.359 25.9922 101.906 25.9922C101.375 25.9922 100.883 26 100.43 26.0156C99.9453 26.0312 99.3828 26.0547 98.7422 26.0859C98.1953 26.1172 97.5156 26.1562 96.7031 26.2031C95.8906 26.2344 94.9531 26.2812 93.8906 26.3438C94.0156 26.125 94.1172 25.9219 94.1953 25.7344C94.2891 25.5469 94.3594 25.3906 94.4062 25.2656C94.4688 25.1094 94.5078 24.9766 94.5234 24.8672C94.6172 24.3672 94.6953 23.7344 94.7578 22.9688C94.8203 22.1875 94.8672 21.3594 94.8984 20.4844C94.9453 19.6094 94.9688 18.7188 94.9688 17.8125C94.9844 16.8906 94.9844 16.0391 94.9688 15.2578C94.9531 14.4766 94.9219 13.7969 94.875 13.2188C94.8438 12.6406 94.7969 12.2422 94.7344 12.0234C94.6562 11.7734 94.5625 11.5234 94.4531 11.2734C94.3594 11.0547 94.2422 10.8359 94.1016 10.6172C93.9766 10.3828 93.8281 10.1797 93.6562 10.0078ZM105.117 10.9922C106.211 11.0234 107.117 11.0469 107.836 11.0625C108.57 11.0625 109.164 11.0625 109.617 11.0625H110.859H117.844C117.875 11.375 117.898 11.6797 117.914 11.9766C117.945 12.2578 117.961 12.5078 117.961 12.7266C117.961 12.9922 117.953 13.2344 117.938 13.4531C117.922 13.6719 117.898 13.9062 117.867 14.1562C117.836 14.375 117.805 14.6094 117.773 14.8594C117.742 15.1094 117.688 15.3672 117.609 15.6328C117.391 14.7891 117.094 14.1484 116.719 13.7109C116.359 13.2734 115.992 12.9531 115.617 12.75C115.18 12.5156 114.719 12.3906 114.234 12.375C113.594 12.4062 113.094 12.4609 112.734 12.5391C112.375 12.6172 112.094 12.7266 111.891 12.8672C111.688 13.0078 111.531 13.1719 111.422 13.3594C111.328 13.5312 111.227 13.7266 111.117 13.9453C111.023 14.1328 110.938 14.4219 110.859 14.8125C110.781 15.1406 110.703 15.5859 110.625 16.1484C110.562 16.7109 110.492 17.4375 110.414 18.3281C110.836 18.2031 111.172 18.0859 111.422 17.9766C111.688 17.8672 111.898 17.7734 112.055 17.6953C112.227 17.6016 112.352 17.5156 112.43 17.4375C112.492 17.3438 112.586 17.1719 112.711 16.9219C112.805 16.7031 112.93 16.4062 113.086 16.0312C113.258 15.6562 113.461 15.1406 113.695 14.4844C113.727 15.2031 113.742 15.8047 113.742 16.2891C113.742 16.7578 113.75 17.1406 113.766 17.4375C113.766 17.7812 113.773 18.0547 113.789 18.2578V19.1484C113.789 19.4766 113.789 19.9219 113.789 20.4844C113.805 21.0312 113.828 21.7266 113.859 22.5703C113.672 21.9922 113.5 21.5391 113.344 21.2109C113.203 20.8672 113.078 20.6094 112.969 20.4375C112.844 20.2344 112.734 20.0938 112.641 20.0156C112.531 19.9844 112.383 19.9531 112.195 19.9219C112.023 19.9062 111.805 19.8984 111.539 19.8984C111.289 19.8984 110.969 19.9375 110.578 20.0156C110.531 20.875 110.523 21.5703 110.555 22.1016C110.602 22.6172 110.664 23.0156 110.742 23.2969C110.82 23.625 110.914 23.8594 111.023 24C111.164 24.1406 111.445 24.2578 111.867 24.3516C112.289 24.4297 112.766 24.4609 113.297 24.4453C113.844 24.4141 114.398 24.3203 114.961 24.1641C115.523 24.0078 116.023 23.75 116.461 23.3906C116.789 23.0938 117.141 22.7188 117.516 22.2656C117.828 21.875 118.172 21.3828 118.547 20.7891C118.938 20.1953 119.32 19.4766 119.695 18.6328C119.633 19.3359 119.586 19.9219 119.555 20.3906C119.539 20.8438 119.516 21.2109 119.484 21.4922C119.453 21.8203 119.43 22.0703 119.414 22.2422C119.414 22.4297 119.391 22.6953 119.344 23.0391C119.312 23.3359 119.258 23.7422 119.18 24.2578C119.117 24.7578 119.031 25.3984 118.922 26.1797C118.188 26.1953 117.492 26.2109 116.836 26.2266C116.18 26.2266 115.602 26.2344 115.102 26.25C114.508 26.2656 113.961 26.2812 113.461 26.2969C112.945 26.2969 112.375 26.3203 111.75 26.3672C111.203 26.3984 110.555 26.4453 109.805 26.5078C109.07 26.5703 108.258 26.6562 107.367 26.7656C107.445 25.7031 107.5 24.7031 107.531 23.7656C107.578 22.8125 107.609 21.9766 107.625 21.2578C107.641 20.4141 107.641 19.6328 107.625 18.9141C107.703 17.1172 107.672 15.6641 107.531 14.5547C107.391 13.4453 107.227 12.7344 107.039 12.4219C106.945 12.3125 106.812 12.1797 106.641 12.0234C106.5 11.8984 106.305 11.75 106.055 11.5781C105.805 11.4062 105.492 11.2109 105.117 10.9922ZM135.609 9.84375C135.391 10.3438 135.195 10.7812 135.023 11.1562C134.852 11.5312 134.703 11.8516 134.578 12.1172C134.438 12.4141 134.32 12.6797 134.227 12.9141C134.148 13.0859 134.047 13.3203 133.922 13.6172C133.797 13.8828 133.641 14.2344 133.453 14.6719C133.281 15.0938 133.055 15.6406 132.773 16.3125C132.633 15.7344 132.461 15.2266 132.258 14.7891C132.055 14.3516 131.836 13.9688 131.602 13.6406C131.367 13.3125 131.117 13.0469 130.852 12.8438C130.602 12.625 130.352 12.4453 130.102 12.3047C129.523 11.9922 128.914 11.8203 128.273 11.7891C127.43 11.8359 126.766 11.9766 126.281 12.2109C125.812 12.4297 125.469 12.6875 125.25 12.9844C125.031 13.2656 124.914 13.5625 124.898 13.875C124.883 14.1719 124.922 14.4219 125.016 14.625C125.094 14.8125 125.367 15.0312 125.836 15.2812C126.32 15.5312 126.898 15.8203 127.57 16.1484C128.258 16.4609 128.992 16.8203 129.773 17.2266C130.555 17.6172 131.273 18.0547 131.93 18.5391C132.602 19.0078 133.164 19.5234 133.617 20.0859C134.086 20.6328 134.344 21.2188 134.391 21.8438C134.438 22.6406 134.43 23.3594 134.367 24C134.305 24.6406 134.086 25.1875 133.711 25.6406C133.336 26.0938 132.75 26.4531 131.953 26.7188C131.172 26.9844 130.086 27.1484 128.695 27.2109C127.258 27.2734 126.078 27.1953 125.156 26.9766C124.234 26.7578 123.484 26.4609 122.906 26.0859C122.344 25.7109 121.922 25.2969 121.641 24.8438C121.375 24.3906 121.18 23.9609 121.055 23.5547C120.93 23.1328 120.844 22.7734 120.797 22.4766C120.75 22.1641 120.672 21.9766 120.562 21.9141C120.438 21.8359 120.312 21.7656 120.188 21.7031C120.078 21.6406 119.961 21.5859 119.836 21.5391C119.711 21.4766 119.586 21.4219 119.461 21.375L126.281 20.2734C125.891 20.5859 125.586 20.875 125.367 21.1406C125.164 21.4062 125.008 21.6406 124.898 21.8438C124.773 22.0781 124.688 22.2969 124.641 22.5C124.609 22.7188 124.68 22.9922 124.852 23.3203C125.023 23.6484 125.258 23.9688 125.555 24.2812C125.867 24.5781 126.227 24.8281 126.633 25.0312C127.039 25.2344 127.461 25.3203 127.898 25.2891C128.445 25.2422 128.891 25.1094 129.234 24.8906C129.578 24.6562 129.836 24.3672 130.008 24.0234C130.195 23.6797 130.305 23.3047 130.336 22.8984C130.367 22.4922 130.328 22.0938 130.219 21.7031C130.125 21.2969 129.969 20.9219 129.75 20.5781C129.531 20.2188 129.273 19.9219 128.977 19.6875C128.711 19.5 128.297 19.3203 127.734 19.1484C127.188 18.9766 126.57 18.7891 125.883 18.5859C125.211 18.3828 124.516 18.1484 123.797 17.8828C123.094 17.6172 122.453 17.2891 121.875 16.8984C121.312 16.5078 120.859 16.0469 120.516 15.5156C120.188 14.9844 120.062 14.3438 120.141 13.5938C120.203 12.9531 120.406 12.4219 120.75 12C121.109 11.5625 121.555 11.2188 122.086 10.9688C122.633 10.7031 123.234 10.5078 123.891 10.3828C124.562 10.2578 125.242 10.1875 125.93 10.1719C126.633 10.1406 127.32 10.1484 127.992 10.1953C128.68 10.2422 129.297 10.2969 129.844 10.3594C130.391 10.4219 130.852 10.4844 131.227 10.5469C131.617 10.5938 131.859 10.625 131.953 10.6406C132.359 10.6719 132.766 10.6641 133.172 10.6172C133.531 10.5859 133.922 10.5156 134.344 10.4062C134.781 10.2812 135.203 10.0938 135.609 9.84375Z" fill="#000A48"/>
</g>
<defs>
<filter id="filter0_d_11_2" x="7.42383" y="8.5" width="5.36841" height="20.5264" filterUnits="userSpaceOnUse" color-interpolation-filters="sRGB">
<feFlood flood-opacity="0" result="BackgroundImageFix"/>
<feColorMatrix in="SourceAlpha" type="matrix" values="0 0 0 0 0 0 0 0 0 0 0 0 0 0 0 0 0 0 127 0" result="hardAlpha"/>
<feOffset dy="0.5"/>
<feGaussianBlur stdDeviation="0.5"/>
<feComposite in2="hardAlpha" operator="out"/>
<feColorMatrix type="matrix" values="0 0 0 0 0 0 0 0 0 0 0 0 0 0 0 0 0 0 0.12 0"/>
<feBlend mode="normal" in2="BackgroundImageFix" result="effect1_dropShadow_11_2"/>
<feBlend mode="normal" in="SourceGraphic" in2="effect1_dropShadow_11_2" result="shape"/>
</filter>
<filter id="filter1_d_11_2" x="13.7422" y="11.5" width="5.36841" height="13.7893" filterUnits="userSpaceOnUse" color-interpolation-filters="sRGB">
<feFlood flood-opacity="0" result="BackgroundImageFix"/>
<feColorMatrix in="SourceAlpha" type="matrix" values="0 0 0 0 0 0 0 0 0 0 0 0 0 0 0 0 0 0 127 0" result="hardAlpha"/>
<feOffset dy="0.5"/>
<feGaussianBlur stdDeviation="0.5"/>
<feComposite in2="hardAlpha" operator="out"/>
<feColorMatrix type="matrix" values="0 0 0 0 0 0 0 0 0 0 0 0 0 0 0 0 0 0 0.12 0"/>
<feBlend mode="normal" in2="BackgroundImageFix" result="effect1_dropShadow_11_2"/>
<feBlend mode="normal" in="SourceGraphic" in2="effect1_dropShadow_11_2" result="shape"/>
</filter>
<filter id="filter2_d_11_2" x="20.0547" y="9.5" width="5.36841" height="18" filterUnits="userSpaceOnUse" color-interpolation-filters="sRGB">
<feFlood flood-opacity="0" result="BackgroundImageFix"/>
<feColorMatrix in="SourceAlpha" type="matrix" values="0 0 0 0 0 0 0 0 0 0 0 0 0 0 0 0 0 0 127 0" result="hardAlpha"/>
<feOffset dy="0.5"/>
<feGaussianBlur stdDeviation="0.5"/>
<feComposite in2="hardAlpha" operator="out"/>
<feColorMatrix type="matrix" values="0 0 0 0 0 0 0 0 0 0 0 0 0 0 0 0 0 0 0.12 0"/>
<feBlend mode="normal" in2="BackgroundImageFix" result="effect1_dropShadow_11_2"/>
<feBlend mode="normal" in="SourceGraphic" in2="effect1_dropShadow_11_2" result="shape"/>
</filter>
<clipPath id="clip0_11_2">
<rect width="154" height="32" fill="white"/>
</clipPath>
</defs>
</svg>
